<svg width="32" height="32" fill="none" xmlns="http://www.w3.org/2000/svg"><path d="M26 16a7.951 7.951 0 0 1-2.286 5.599 1 1 0 0 1-1.428-1.4 6 6 0 0 0 0-8.397 1 1 0 0 1 1.428-1.4A7.95 7.95 0 0 1 26 16Zm-.316-9.73a1 1 0 1 0-1.368 1.46 11.127 11.127 0 0 1 0 16.541 1 1 0 1 0 1.368 1.459 13.124 13.124 0 0 0 0-19.46ZM20 5.92v20.16a2.012 2.012 0 0 1-3.147 1.638L8.686 22H5a3 3 0 0 1-3-3v-6a3 3 0 0 1 3-3h3.685l8.168-5.718A2.013 2.013 0 0 1 20 5.92ZM8 12H5a1 1 0 0 0-1 1v6a1 1 0 0 0 1 1h3v-8Zm10.006 14.082L18 5.921l-8 5.6v8.959l8 5.6.006.002Z" fill="#fff"/></svg>